<?xml version="1.0" encoding="utf-8"?>
<svg version="1.1" xmlns="http://www.w3.org/2000/svg" xmlns:xlink="http://www.w3.org/1999/xlink" width="50pt" height="50pt" viewBox="225 150 150 150">
    <g>
        <path fill="#b77375" d="M301.54,216.04c-0.49-0.75-1-1.5-1.51-2.26c-1.31-1.94-2.63-3.83-3.95-5.65c0,0-0.76-0.98-1.59-1.93
            c-2.76-3.12-7.3-7.1-19.49-15.59c-14.38-10.01-16.16-10.11-17.56-9.5c-6.64,2.87-3.71,21.09-3.47,22.57
            c0.65,4.05,2.68,16.68,10.06,18.54c2.06,0.52,4.02,0.07,5.51-0.51c-2.19,1.39-5.94,4.26-7.51,9.04
            c-2.04,6.2,0.86,11.85,4.54,19.05c4.72,9.21,7.83,15.28,12.56,15.52c7.2,0.37,13.61-12.96,17.52-21.09
            c1.74-3.62,3.22-7.7,3.22-7.7c0.47-1.29,0.93-2.58,1.4-3.87C301.36,227.11,301.45,221.58,301.54,216.04z"/>
    </g>
    <g>
        <path fill="#d79395" d="M301.21,216.53c0.48-0.9,1.01-1.81,1.58-2.75c1.3-2.11,2.64-4,3.95-5.65c0,0,0.76-0.98,1.59-1.93
            c2.76-3.12,7.3-7.1,19.49-15.59c14.38-10.01,16.16-10.11,17.56-9.5c6.64,2.87,3.71,21.09,3.47,22.57
            c-0.65,4.05-2.68,16.68-10.06,18.54c-2.06,0.52-4.02,0.07-5.51-0.51c2.19,1.39,5.94,4.26,7.51,9.04
            c2.04,6.2-0.86,11.85-4.54,19.05c-4.72,9.21-7.83,15.28-12.56,15.52c-7.2,0.37-13.61-12.96-17.52-21.09
            c-1.74-3.62-3.22-7.7-3.22-7.7c-0.57-1.29-1.13-2.58-1.7-3.87C301.25,227.28,301.23,221.9,301.21,216.53z"/>
    </g>
</svg>