<svg xmlns="http://www.w3.org/2000/svg" xmlns:xlink="http://www.w3.org/1999/xlink" version="1.1" x="0px" y="0px" viewBox="0 0 164 205" enable-background="new 0 0 164 164" xml:space="preserve" fill="#9900cc">
    <path fill-rule="evenodd" clip-rule="evenodd" d="M142.626,79.323H83.7c0.587,47.921,27.698,51.07,27.698,59.77v20.851L89.083,164  c16.054,0,32.107,0,48.16,0l-22.225-4.057l-0.091-20.792C114.928,130.403,142.74,128.261,142.626,79.323L142.626,79.323z   M60.429,164H28.066c-3.857,0-7.012-3.155-7.012-7.012V77.575c0-19.42,14.91-29.173,14.91-40.477V18.945h16.566v17.491  c0,12.54,14.91,21.67,14.91,41.139v79.414C67.441,160.845,64.286,164,60.429,164L60.429,164z M57.734,131.293  c2.497,0,4.542-2.047,4.542-4.543V91.78c0-2.496-2.044-4.542-4.542-4.542H30.762c-2.498,0-4.542,2.044-4.542,4.542v34.97  c0,2.499,2.046,4.543,4.542,4.543H57.734L57.734,131.293z M35.965,17.046V0.32h16.566v16.727H35.965L35.965,17.046z M135.433,89.427  c-0.311,24.551-12.933,32.294-18.478,37.265h-7.414c-5.738-4.56-17.347-13.12-18.647-37.265H135.433L135.433,89.427z   M139.386,81.989c0.08,34.275-15.229,42.759-21.757,48.612h-8.731c-6.309-6.04-21.543-14.815-21.957-48.612H139.386z" />
</svg>