<svg xmlns="http://www.w3.org/2000/svg" xmlns:xlink="http://www.w3.org/1999/xlink" xmlns:serif="http://www.serif.com/" viewBox="0 0 153 110" version="1.1" xml:space="preserve" style="" x="0px" y="0px" fill-rule="evenodd" clip-rule="evenodd" stroke-linejoin="round" stroke-miterlimit="1.41421">
    <g transform="matrix(1,0,0,1,-1901,-1971)">
        <g transform="matrix(0.42107,0,0,0.42107,1325.03,1240.59)">
            <path d="M1634.66,1738.09C1662.09,1728.87 1699.65,1766.87 1718.48,1822.9C1737.31,1878.93 1730.33,1931.9 1702.9,1941.12C1675.47,1950.34 1637.91,1912.34 1619.08,1856.31C1600.25,1800.28 1607.23,1747.31 1634.66,1738.09ZM1610.58,1742.86C1607.49,1747.05 1605.01,1751.69 1603.18,1756.44C1591.8,1786.02 1595.98,1817.52 1603.98,1846.98C1613.07,1880.47 1628.93,1913.78 1655.02,1936.74C1657.08,1938.56 1659.31,1940.32 1661.65,1941.99C1593.24,1936.83 1513.53,1908.32 1494.64,1870.37L1497.43,1868.05C1497.73,1867.75 1497.84,1867.69 1498.05,1867.31C1498.44,1866.61 1498.48,1865.72 1498.17,1864.99C1498,1864.59 1497.9,1864.52 1497.63,1864.19L1497.26,1863.88L1487.41,1856.95L1497.28,1849.9C1497.59,1849.64 1497.68,1849.59 1497.91,1849.25C1498.43,1848.5 1498.52,1847.48 1498.14,1846.65C1497.97,1846.29 1497.88,1846.22 1497.63,1845.91L1497.28,1845.62L1487.41,1838.57L1497.26,1831.64C1497.57,1831.38 1497.67,1831.33 1497.91,1830.99C1498.43,1830.24 1498.52,1829.22 1498.14,1828.39C1497.97,1828.02 1497.88,1827.95 1497.63,1827.64L1497.28,1827.34L1487.39,1820.28L1497.28,1813.21C1497.4,1813.11 1497.53,1813.01 1497.64,1812.9C1497.87,1812.67 1498.05,1812.39 1498.17,1812.1C1498.23,1811.95 1498.27,1811.8 1498.32,1811.64C1498.36,1811.32 1498.4,1811 1498.35,1810.69C1498.31,1810.37 1498.2,1810.06 1498.04,1809.78C1497.89,1809.5 1497.66,1809.27 1497.43,1809.05L1494.64,1806.73C1508.92,1778.04 1557.94,1754.75 1610.58,1742.86ZM1425.76,1867.16C1425.76,1882.95 1412.94,1895.77 1397.15,1895.77C1381.36,1895.77 1368.54,1882.95 1368.54,1867.16C1368.54,1851.37 1381.36,1838.55 1397.15,1838.55C1381.36,1838.55 1368.54,1825.73 1368.54,1809.94C1368.54,1794.15 1381.36,1781.33 1397.15,1781.33C1412.94,1781.33 1425.76,1794.15 1425.76,1809.94L1490.27,1809.94L1491.44,1810.91L1481.33,1818.14C1481.03,1818.4 1480.93,1818.45 1480.7,1818.78C1480.18,1819.53 1480.09,1820.55 1480.47,1821.38C1480.64,1821.75 1480.73,1821.81 1480.99,1822.12L1481.33,1822.42L1491.2,1829.47L1481.35,1836.4C1481.04,1836.66 1480.94,1836.71 1480.71,1837.04C1480.18,1837.79 1480.09,1838.82 1480.47,1839.65C1480.64,1840.02 1480.73,1840.08 1480.99,1840.39L1481.33,1840.69L1491.23,1847.76L1481.33,1854.82C1481.03,1855.08 1480.93,1855.13 1480.7,1855.47C1480.18,1856.22 1480.09,1857.25 1480.48,1858.08C1480.65,1858.45 1480.74,1858.51 1481,1858.82L1481.35,1859.11L1491.42,1866.2L1490.27,1867.16L1425.76,1867.16ZM1664.24,1812.13C1673.41,1809.05 1685.96,1821.75 1692.26,1840.48C1698.55,1859.2 1696.22,1876.91 1687.05,1879.99C1677.88,1883.07 1665.33,1870.37 1659.03,1851.64C1652.74,1832.92 1655.07,1815.21 1664.24,1812.13Z" />
        </g>
    </g>
</svg>