<svg xmlns="http://www.w3.org/2000/svg" xmlns:xlink="http://www.w3.org/1999/xlink" version="1.1" x="0px" y="0px" viewBox="0 0 1024 1280" style="enable-background:new 0 0 1024 1024;" xml:space="preserve">
    <path d="M817,316.3c-37-76.8-90.9-149.5-163.3-196.2c-32.1-20.7-68.5-35.9-106.4-41.5c-38.7-5.6-78-2-115,10.9  c-79.1,27.7-141.4,89.8-186.8,158.5c-50.2,75.9-83.1,164.6-95.9,254.6c-12.4,87-7.3,178.4,31.1,258.6  c32.1,67,88.1,120.3,155.7,150.8c71.3,32.1,152.3,41.8,229.7,32.7c75.5-8.8,148.6-36.3,205.6-87.6c58.7-52.9,93.1-127.2,103.9-204.8  c3.2-22.6,4.8-45.2,4.8-68v0c0,0,0,0,0,0C880.3,491.8,857,399.5,817,316.3z M511.9,244.7c-3.3,0-6.6,0.1-9.9,0.4  c-0.5,0-2.5,0.3-3.5,0.4c-0.1,0-0.1,0-0.2,0c-0.5,0.1-1,0.2-1.3,0.2c-6.3,1.1-12.5,2.7-18.6,4.7c-2.7,0.9-5.3,1.9-7.9,2.9  c-0.6,0.3-1.2,0.5-1.8,0.8c-1.4,0.6-2.7,1.3-4.1,2c-5.8,2.9-11.5,6.2-16.9,9.8c-2.6,1.7-5.2,3.5-7.8,5.4c-0.3,0.2-0.5,0.4-0.8,0.6  c-0.9,1-2.2,1.8-3.2,2.6c-4.9,4-9.7,8.3-14.2,12.8c-4.7,4.6-9.2,9.4-13.6,14.4c-2.2,2.5-4.3,5-6.3,7.5c-1,1.3-2.1,2.6-3.1,3.9  c0,0.1-0.1,0.1-0.2,0.2c0,0,0,0,0,0.1c-0.1,0.2-0.3,0.4-0.5,0.7c-17.4,23.1-31.7,48.5-43.3,74.9c-0.5,1.1-1,2.2-1.5,3.4  c-0.1,0.2-0.2,0.5-0.3,0.8c0,0,0,0,0,0c0,0.1,0,0.1-0.1,0.2c0,0,0,0,0,0c0,0,0,0.1,0,0.1c0,0,0,0,0,0.1c0,0,0,0.1-0.1,0.2  c-0.1,0.2-0.2,0.4-0.3,0.7c-0.3,0.8-0.7,1.7-0.8,2c-1.4,3.4-2.8,6.9-4.1,10.4c-2.7,7.2-5.3,14.6-7.7,21.9  c-4.7,14.6-8.7,29.5-12,44.5c-1.7,7.7-3.1,15.4-4.4,23.1c-0.3,2-0.6,4-1,6c-0.2,1.5-0.2,4.6-0.8,6c0,0,0,0,0,0  c-0.1,0.5-0.1,1-0.2,1.5c-0.2,1.8-0.4,3.5-0.6,5.3c-1.7,15.4-2.6,30.8-2.6,46.3c0,11.2-9.1,19.5-20,20c-10.8,0.5-20-9.5-20-20  c0.1-37.4,5-75,14-111.3c15.1-61.6,42-121.6,82.6-170.7c34-41.1,82-74.4,137.1-74.7c11.2,0,19.5,9.2,20,20  C532.4,235.5,522.4,244.6,511.9,244.7z" />
</svg>