<svg xmlns="http://www.w3.org/2000/svg" xmlns:xlink="http://www.w3.org/1999/xlink" version="1.1" x="0px" y="0px" viewBox="0 0 90 112.5" enable-background="new 0 0 90 90" xml:space="preserve" fill="#8db600">
    <path d="M16.8,44.5c0,1.7,0.3,3.4,0.8,5c0.6,2.4,2,4.9,3.8,8c2.2,3.8,4.9,8.5,6.8,14.4c0.8,2.6,1.9,4.6,3.1,6c1.8,2,4,3.1,6.6,3.1  c2.7,0,5.3-1.1,7.1-3c1.8,1.9,4.3,3,7.1,3c2.6,0,4.8-1,6.6-3.1c1.3-1.5,2.3-3.4,3.1-6c1.9-6,4.6-10.6,6.8-14.4  c1.8-3.1,3.3-5.6,3.8-8c0.5-1.6,0.8-3.3,0.8-5c0-8.6-7-15.6-15.6-15.6c-3.7,0-7.3,1.3-10,3.6c0.2-3.3,0.5-6.5,0.8-9.5  c0.1-1.3-0.8-2.4-2.1-2.6c-1.3-0.1-2.4,0.8-2.6,2.1c-0.2,1.6-0.3,3.3-0.5,5l-3.8-3.1c0.5-1.3,0.7-2.8,0.4-4.5  c-0.3-2.3-1.4-4.5-2.9-6c-6-6-14.2-4.9-14.5-4.8c-1,0.2-1.8,1-2,2c0,0.3-1.2,8.5,4.9,14.5c1.8,1.8,4.7,3,7.5,3  c1.2,0,2.4-0.2,3.5-0.7l3.4,2.9c-2.2-1.2-4.7-1.8-7.3-1.8C23.8,28.9,16.8,35.9,16.8,44.5z" />
</svg>