<svg xmlns="http://www.w3.org/2000/svg" xmlns:xlink="http://www.w3.org/1999/xlink" version="1.1" x="0px" y="0px" viewBox="0 0 100 125" style="enable-background:new 0 0 100 100;" xml:space="preserve" fill="#189cc4">
    <g>
        <path d="M41.1,47.1L41.1,47.1L41,47.3c0.7-0.9,1.4-1.6,2.4-2.3c-0.8-0.7-2.1-1.4-3.1-1.3c-0.3,0.1-0.5,0.1-0.8,0.1   C39.7,45.4,40.3,47.1,41.1,47.1z" />
        <path d="M62,58.6l-0.4-4c-0.4-3.8-2.6-6.9-5.8-8.6c-2.7,0.1-3.5,4.2-3.5,4.2s0.1,2.9-3.5,1.8c-2.4-0.8-3.8-3.4-4.4-4.9   c-2,1.6-3.6,4.1-4,7l-1,4.3c2.9-2.2,6.9-3.5,11.1-3.5C55.1,54.8,59.2,56.3,62,58.6z M56.9,51.1c0.7-0.1,1.4,0.5,1.5,1.3   c0.1,0.8-0.5,1.4-1.3,1.5c-0.9,0.1-1.6-0.5-1.5-1.3C55.5,51.9,56.2,51.2,56.9,51.1z M44.6,53.9c-0.8,0.1-1.4-0.6-1.5-1.3   c-0.1-0.8,0.5-1.4,1.3-1.5c0.8-0.1,1.5,0.5,1.5,1.3C46,53.2,45.4,53.8,44.6,53.9z" />
        <path d="M62,43.9c-0.1-0.1-0.5-0.1-0.8-0.1c-0.9-0.1-2,0.5-3,0.9c0.9,0.7,1.8,1.5,2.5,2.3C61.4,46.6,61.8,45.2,62,43.9z" />
        <path d="M50.8,57.3c-4.1,0-7.9,1.4-10.4,3.7c-0.3,0.2-0.4,0.4-0.7,0.7c-1.6,1.6-2.3,3.5-2.3,5.5c0,5.4,6,9.8,13.4,9.8   c7.4,0,13.4-4.5,13.5-9.8c0-1.2-0.3-2.3-0.8-3.4c-0.2-0.3-0.3-0.6-0.6-0.9C60.6,59.4,55.9,57.3,50.8,57.3z M45.5,69.2   c-2.3,0-4.1-1.9-4.1-4.1c0-2.3,1.9-4.1,4.1-4.1s4.1,1.9,4.1,4.1C49.6,67.5,47.7,69.2,45.5,69.2z M56,69.2c-2.3,0-4.1-1.9-4.1-4.1   c0-2.3,1.9-4.1,4.1-4.1c2.2,0,3.9,1.9,4.1,4.1C60.1,67.5,58.2,69.2,56,69.2z" />
        <path d="M73.8,36.7c-0.4-1.1-0.9-2.1-1.6-3c0,0,0,0,0,0l-6.7-9.1v-4.9c1.3-0.8,2.1-2.2,2.1-3.9v-4.3c0-2.5-2-4.6-4.6-4.6H36.9   c-2.5,0-4.6,2-4.6,4.6v4.3c0,1.6,0.8,3,2.1,3.8v4.9l-6.7,9.1c-0.7,0.9-1.2,1.9-1.6,3c-0.5,1.4-0.8,3-0.8,4.5v38.9   c0,1.6,0.3,3.1,0.8,4.5C28,89.5,32.7,93,38.3,93h23.5c5.5,0,10.2-3.5,12.1-8.3c0.5-1.4,0.8-3,0.8-4.5V41.2   C74.6,39.7,74.4,38.1,73.8,36.7z M62.7,12v3H37.3v-3H62.7z M31.8,36.7l7.1-9.7c0.3-0.4,0.5-1,0.5-1.5V20h21.1v5.5   c0,0.5,0.2,1,0.5,1.5l7.1,9.7c0,0,0,0,0,0.1L31.8,36.7C31.8,36.7,31.8,36.7,31.8,36.7z M37,44.2l-0.1-1c0-0.7,0.5-1.2,1.3-1.3   c0.3-0.1,1-0.2,1.7-0.3c2.2-0.5,4.6,1.3,5.6,2.2c1.3-0.5,2.7-1,4.1-1.2c2.3-0.3,4.5,0.2,6.4,1c1-0.9,3.3-2.4,5.4-2.1   c0.8,0.1,1.4,0.2,1.7,0.3c0.9,0.2,1.3,0.6,1.3,1.3l-0.1,1h-0.1c-0.1,1.4-0.7,3.8-2.2,4.8c1,1.6,1.6,3.5,1.8,5.5l0.7,7.1   c1.2,1.7,1.7,3.5,1.5,5.6c0,6.8-7,12.2-15.6,12.2c-8.6,0-15.7-5.5-15.7-12.2c0-1.9,0.6-3.7,1.6-5.3l1.6-8.1   c0.2-1.6,0.8-3.1,1.5-4.5C37.8,48.4,37.1,45.7,37,44.2z M61.8,88H38.3c-2.7,0-5-1.3-6.4-3.3h36.4C66.8,86.7,64.4,88,61.8,88z" />
    </g>
</svg>