<svg xmlns="http://www.w3.org/2000/svg" xmlns:xlink="http://www.w3.org/1999/xlink" xml:space="preserve" style="shape-rendering:geometricPrecision;text-rendering:geometricPrecision;image-rendering:optimizeQuality;" viewBox="0 0 1.70666 2.133325" x="0px" y="0px" fill-rule="evenodd" clip-rule="evenodd"  >
  <defs>
    <style type="text/css">
   
    .fil0 {fill:#4b291d}
   
  </style>
  </defs>
  <g>
    <path class="fil0" d="M1.30426 0.274807l-0.358142 3.93701e-006c-0.0115118,0 -0.0205945,-0.00994488 -0.0195315,-0.0214134l0.014311 -0.157512c0.00470079,-0.0515866 -0.0357835,-0.0958898 -0.0875748,-0.0958898 -0.0518031,0 -0.0922402,0.0443031 -0.0875551,0.0958898l0.0143189 0.157512c0.00106299,0.0114803 -0.00802362,0.0214134 -0.0195472,0.0214134l-0.358138 0c-0.0762402,0 -0.102874,0.0510472 -0.125563,0.111587 -0.0141142,0.0376417 -0.00909055,0.0781811 0.013811,0.111244 0.0195472,0.028185 0.0487795,0.0460748 0.0819016,0.0507402l0.0718504 -0.107783c0.00600787,-0.00901969 0.0182008,-0.0114488 0.0272283,-0.00544094 0.00900787,0.00601969 0.0114488,0.0182126 0.00543307,0.0272244l-0.0581693 0.0872717 0.109858 -1.5748e-005 0.072685 -0.109047c0.00600787,-0.00901969 0.0182008,-0.0114488 0.0272244,-0.00544488 0.00902362,0.00602362 0.0114646,0.0182165 0.00544488,0.0272283l-0.0581811 0.0872717 0.109858 -7.87402e-006 0.0727008 -0.109047c0.00600394,-0.00901969 0.0181969,-0.0114488 0.0272087,-0.00544488 0.00901969,0.00602362 0.0114646,0.0182165 0.00545669,0.0272283l-0.0581811 0.0872717 0.10985 -7.87402e-006 0.0726969 -0.109047c0.00602362,-0.00901969 0.0182165,-0.0114488 0.0272126,-0.00544488 0.00901969,0.00602362 0.0114764,0.0182165 0.00545669,0.0272283l-0.0581654 0.0872717 0.109854 -7.87402e-006 0.0726732 -0.109047c0.00601969,-0.00901969 0.0182126,-0.0114488 0.0272362,-0.00544488 0.00899606,0.00602362 0.0114488,0.0182165 0.00543307,0.0272283l-0.0581693 0.0872717 0.109858 -7.87402e-006 0.072685 -0.109047c0.00600787,-0.00901969 0.0182008,-0.0114488 0.0272244,-0.00544488 0.00901181,0.00602362 0.0114488,0.0182165 0.00543307,0.0272283l-0.0581654 0.0872717 0.112606 -7.87402e-006c0.0402165,0 0.0764055,-0.0189567 0.0992992,-0.0519921 0.0229134,-0.0330472 0.0279567,-0.0735866 0.0138268,-0.111244 -0.0226654,-0.0605709 -0.0492992,-0.111594 -0.125555,-0.111594z" />
    <path class="fil0" d="M0.401858 0.588886l0 0.56928c0,0.222787 0.166004,0.41485 0.386138,0.446772 0.00605906,0.000874016 0.0113622,0.00454724 0.0143504,0.00989764l0.051 0.0918268 0.0510276 -0.091815c0.00297638,-0.0053622 0.00826378,-0.00901969 0.0143346,-0.00989764 0.220138,-0.0319094 0.386138,-0.223988 0.386138,-0.446772l-3.93701e-006 -0.569291c-0.300992,0 -0.601992,0 -0.902984,0z" />
  </g>
</svg>