<svg xmlns="http://www.w3.org/2000/svg" xmlns:xlink="http://www.w3.org/1999/xlink" version="1.1" x="0px" y="0px" viewBox="0 0 67 83.75" enable-background="new 0 0 67 67" xml:space="preserve">
    <g>
        <g>
            <g>
                <path d="M42.22888,10.73999c0,4.82001-3.90997,8.73999-8.71997,8.73999c-4.82001,0-8.75-3.91998-8.75-8.73999     S28.6889,2,33.50891,2C38.31891,2,42.22888,5.91998,42.22888,10.73999z" />
            </g>
        </g>
        <g>
            <path d="M16.69891,44.94995c0.70001,6.81006,3.41998,12.70001,7.25,16.41003h-2.28003c-1.00995,0-1.82001,0.81-1.82001,1.82001    c0,1,0.81006,1.82,1.82001,1.82h10.86005V47.57001h2V65h10.87c1,0,1.82001-0.82001,1.82001-1.82    c0-1.01001-0.82001-1.82001-1.82001-1.82001h-2.27002c3.83002-3.71002,6.53998-9.59998,7.23999-16.41003H16.69891z" />
            <path d="M55.78888,42.88001c1.96002-0.41003,3.20001-2.53003,2.59003-4.72003c-0.73999-2.71997-1.64001-5.39001-2.69-8.01001    c-2.52997-6.32996-8.25-10.73999-14.89001-11.53998c-1.90997,1.77997-4.46997,2.87-7.28998,2.87s-5.39001-1.09003-7.31-2.87    c-6.64001,0.79999-12.34003,5.21002-14.88,11.52997c-1.04999,2.62006-1.96002,5.30005-2.71002,8.02002    c-0.58997,2.19,0.63,4.31,2.59003,4.72003c1.97998,0.39996,3.89996-0.87,4.44-2.79004c0.38-1.44,0.83002-2.87,1.33002-4.28998    c-0.30005,1.78998-0.46002,3.65997-0.46002,5.58002c0,0.52997,0.01001,1.04999,0.02997,1.56995h33.99005    c0.01996-0.51996,0.02997-1.03998,0.02997-1.56995c0-1.79004-0.13-3.53003-0.38-5.19    c0.44,1.28998,0.83002,2.57996,1.20001,3.89996C51.88892,42.01001,53.81891,43.27997,55.78888,42.88001z" />
            <polygon points="62.1748,43.83289 60.76074,45.24695 62.08551,46.57117 54.91602,46.57117 54.91602,48.57117 62.08575,48.57117     60.76074,49.89588 62.1748,51.30994 65.91406,47.57117   " />
            <polygon points="6.23828,45.24695 4.82422,43.83289 1.08594,47.57117 4.82422,51.30994 6.23828,49.89588 4.91388,48.57117     11.25,48.57117 11.25,46.57117 4.91406,46.57117   " />
        </g>
    </g>
</svg>