<svg xmlns:dc="http://purl.org/dc/elements/1.1/" xmlns:cc="http://creativecommons.org/ns#" xmlns:rdf="http://www.w3.org/1999/02/22-rdf-syntax-ns#" xmlns:svg="http://www.w3.org/2000/svg" xmlns="http://www.w3.org/2000/svg" xmlns:sodipodi="http://sodipodi.sourceforge.net/DTD/sodipodi-0.dtd" xmlns:inkscape="http://www.inkscape.org/namespaces/inkscape" viewBox="0 0 8.4666665 10.583333625" version="1.1" x="0px" y="0px">
    <g transform="translate(0,-288.53332)">
        <path d="m 5.0074674,294.08949 -2.7602255,0 c -0.2923379,0 -0.5292423,-0.23761 -0.5293244,-0.53071 l -1.85e-5,-1.3211 2.6920512,-0.006 c 0.1403847,0 0.2750211,0.0559 0.3742879,0.15543 l 0.2537846,0.25444 c 0.073388,0.0736 0.1828974,0.0974 0.2800734,0.0608 l 1.8253778,-0.73047 0.5293244,0 -1.9449707,1.83363 c -0.1946537,0.18351 -0.4531466,0.2836 -0.7203602,0.2836 z" style="" fill="#000000" fill-rule="evenodd" stroke="none" />
        <path d="m 0.80294859,292.23331 c -0.18258515,0 -0.31765285,0.18481 -0.26052816,0.35821 l 0.17265238,0.52415 c 0.0344458,0.10457 0.13340562,0.17626 0.24346804,0.17626 l 0.49469065,0 0,-0.26465 -0.48900571,0 c -0.0583633,-0.17452 -0.17264708,-0.52495 -0.17264708,-0.52495 l 0.66165809,0 0.00106,-0.26478 z" style="color:#000000;font-style:normal;font-variant:normal;font-weight:normal;font-stretch:normal;font-size:medium;line-height:normal;font-family:sans-serif;text-indent:0;text-align:start;text-decoration:none;text-decoration-line:none;text-decoration-style:solid;text-decoration-color:#000000;letter-spacing:normal;word-spacing:normal;text-transform:none;direction:ltr;writing-mode:lr-tb;baseline-shift:baseline;text-anchor:start;white-space:normal;clip-rule:nonzero;display:inline;overflow:visible;visibility:visible;opacity:1;isolation:auto;mix-blend-mode:normal;color-interpolation:sRGB;color-interpolation-filters:linearRGB;solid-color:#000000;solid-opacity:1;fill:#000000;fill-opacity:1;fill-rule:evenodd;stroke:none;stroke-width:1px;stroke-linecap:butt;stroke-linejoin:miter;stroke-miterlimit:4;stroke-dasharray:none;stroke-dashoffset:0;stroke-opacity:1;color-rendering:auto;image-rendering:auto;shape-rendering:auto;text-rendering:auto;enable-background:accumulate" />
        <path d="m 2.3795545,291.50989 0,0.26465 0.5293244,0 0,0.26465 0.2646622,0 0,-0.26465 0.5293243,0 0,-0.26465 z" style="color:#000000;font-style:normal;font-variant:normal;font-weight:normal;font-stretch:normal;font-size:medium;line-height:normal;font-family:sans-serif;text-indent:0;text-align:start;text-decoration:none;text-decoration-line:none;text-decoration-style:solid;text-decoration-color:#000000;letter-spacing:normal;word-spacing:normal;text-transform:none;direction:ltr;writing-mode:lr-tb;baseline-shift:baseline;text-anchor:start;white-space:normal;clip-rule:nonzero;display:inline;overflow:visible;visibility:visible;opacity:1;isolation:auto;mix-blend-mode:normal;color-interpolation:sRGB;color-interpolation-filters:linearRGB;solid-color:#000000;solid-opacity:1;fill:#000000;fill-opacity:1;fill-rule:evenodd;stroke:none;stroke-width:1px;stroke-linecap:butt;stroke-linejoin:miter;stroke-miterlimit:4;stroke-dasharray:none;stroke-dashoffset:0;stroke-opacity:1;color-rendering:auto;image-rendering:auto;shape-rendering:auto;text-rendering:auto;enable-background:accumulate" />
        <path style="opacity:1;fill:#000000;fill-opacity:1;stroke:none;stroke-width:0.99999994;stroke-linecap:round;stroke-linejoin:round;stroke-miterlimit:4;stroke-dasharray:none;stroke-opacity:1" d="m 8.0697916,293.32485 c 0,0.22236 -0.1777392,0.40262 -0.3969933,0.40262 -0.2192541,0 -0.3969933,-0.18026 -0.3969933,-0.40262 0,-0.22236 0.3969933,-0.69019 0.3969933,-0.69019 0,0 0.3969933,0.46783 0.3969933,0.69019 z" />
    </g>
</svg>