<svg xmlns="http://www.w3.org/2000/svg" xmlns:xlink="http://www.w3.org/1999/xlink" version="1.1" x="0px" y="0px" viewBox="0 0 64 80" style="enable-background:new 0 0 64 64;" xml:space="preserve" fill="#907A70" >
    <path d="M43.6,29c-0.2,6.2-1,12.3-2.6,18.3c-1.6,5.9-5.6,10.7-10.8,13.4c5.7,0.5,11.5,0.4,17.2-0.3c7.8-1,13.7-7.8,13.7-15.7  C61,40,57.7,28.5,43.6,29z M43.9,58.7c-0.2,0.2-0.7,0.5-1.4,0c-0.5-0.3-0.4-1,0-1.4c1.1-1.3,0.3-2.2,0-2.6c-0.4-0.4-0.4-1,0-1.4  c0.4-0.4,1-0.4,1.4,0C45.4,54.8,45.4,57.2,43.9,58.7z M53.9,40.7c-0.2,0.2-0.9,0.6-1.4,0c-0.4-0.4-0.4-1.1,0-1.4  c0.9-0.8,0.3-2.2,0-2.6c-0.4-0.4-0.4-1,0-1.4c0.4-0.4,1-0.4,1.4,0C55.4,36.8,55.4,39.2,53.9,40.7z" />
    <path d="M39,46.8c3.1-9.7,3.3-20,1.9-30.1C39.9,8.9,33.2,2.6,25.3,3C11,3.7,7.6,17,10.3,23.8c0.6,1.4,0.3,3.1-0.4,4.4  c0,0-6.9,9.4-6.9,16.7C3,53.8,10.2,61,19.1,61C19.1,61,34,62.5,39,46.8z M16.7,38.7c-0.5,0.5-1.2,0.2-1.4,0c-0.7-0.7-1.9-0.7-2.6,0  c-0.4,0.4-1,0.4-1.4,0c-0.4-0.4-0.4-1,0-1.4c1.5-1.5,3.9-1.5,5.4,0C17.1,37.7,17.1,38.3,16.7,38.7z M18.7,16.7  c-0.6,0.5-1.2,0.2-1.4,0c-0.7-0.7-1.9-0.7-2.6,0c-0.4,0.4-1,0.4-1.4,0c-0.4-0.4-0.4-1,0-1.4c1.5-1.5,3.9-1.5,5.4,0  C19.1,15.7,19.1,16.4,18.7,16.7z M30.7,52.7c-0.6,0.6-1.2,0.2-1.4,0c-0.7-0.7-1.9-0.7-2.6,0c-0.4,0.4-1,0.4-1.4,0  c-0.4-0.4-0.4-1,0-1.4c1.5-1.5,3.9-1.5,5.4,0C31.1,51.7,31.1,52.3,30.7,52.7z M32.7,30.7c-0.4,0.4-1,0.4-1.4,0c-0.4-0.4-0.4-1,0-1.4  c1.4-1.4,4-1.4,5.4,0c0.4,0.4,0.4,1.1,0,1.4c-0.6,0.5-1.2,0.2-1.4,0C34.6,30,33.4,30,32.7,30.7z" />
</svg>