<svg xmlns="http://www.w3.org/2000/svg" xmlns:xlink="http://www.w3.org/1999/xlink" version="1.1" x="0px" y="0px" viewBox="0 0 48 60" enable-background="new 0 0 48 48" xml:space="preserve">
    <path d="M33.632,14.752c0.07,0.036,0.148,0.055,0.229,0.055c0.052,0,0.104-0.008,0.152-0.023c0.127-0.04,0.231-0.129,0.293-0.247  l2.219-4.324c0.061-0.118,0.07-0.256,0.029-0.382c-0.039-0.126-0.129-0.231-0.246-0.292L31.983,7.32  c-0.244-0.124-0.547-0.03-0.674,0.217l-2.219,4.323c-0.125,0.245-0.027,0.547,0.217,0.674L33.632,14.752z" />
    <path d="M23.585,17.053c-0.131-0.03-0.265-0.006-0.377,0.063l-4.114,2.585c-0.234,0.146-0.306,0.456-0.158,0.688l2.585,4.115  c0.096,0.151,0.258,0.234,0.424,0.234c0.092,0,0.184-0.024,0.266-0.076l4.115-2.584c0.111-0.071,0.191-0.185,0.222-0.313  s0.007-0.265-0.063-0.377l-2.585-4.116C23.827,17.162,23.714,17.082,23.585,17.053z" />
    <path d="M22.089,2.157c-0.189-0.2-0.507-0.21-0.706-0.021l-3.54,3.328c-0.201,0.189-0.212,0.506-0.021,0.707l3.328,3.541  c0.099,0.104,0.23,0.157,0.364,0.157c0.123,0,0.246-0.045,0.343-0.137l3.541-3.327c0.097-0.092,0.153-0.217,0.157-0.35  s-0.045-0.262-0.137-0.357L22.089,2.157z" />
    <path d="M41.528,27.696c-0.049-0.231-0.254-0.397-0.489-0.397H13.054c-0.236,0-0.44,0.166-0.489,0.397  c-0.08,0.381-0.141,0.762-0.19,1.142c-1.082-0.266-2.214-0.188-3.247,0.277c-1.229,0.552-2.168,1.548-2.646,2.805  c-0.352,0.917-0.424,1.91-0.214,2.87c0.419,1.922,1.563,3.563,3.218,4.627c1.201,0.771,2.567,1.168,3.961,1.168  c0.527,0,1.059-0.058,1.587-0.173c0.218-0.047,0.429-0.122,0.643-0.189c1.312,1.564,2.962,2.877,4.897,3.817v1.46  c0,0.275,0.224,0.5,0.5,0.5h11.947c0.275,0,0.5-0.225,0.5-0.5v-1.46C39.646,41.064,42.933,34.391,41.528,27.696z M14.819,39.436  c-1.663,0.361-3.363,0.058-4.795-0.86c-1.431-0.918-2.418-2.338-2.781-3.998c-0.168-0.771-0.108-1.565,0.172-2.302  c0.384-1.008,1.138-1.807,2.121-2.247c0.876-0.394,1.835-0.442,2.747-0.185c-0.219,3.465,0.774,6.814,2.733,9.533  C14.95,39.395,14.887,39.421,14.819,39.436z M37.577,33.258c-0.568,2.373-1.941,4.508-3.865,6.012  c-0.091,0.072-0.199,0.105-0.308,0.105c-0.147,0-0.296-0.066-0.394-0.191c-0.172-0.219-0.133-0.531,0.086-0.701  c1.746-1.365,2.99-3.303,3.508-5.457c0.063-0.269,0.33-0.438,0.603-0.369C37.476,32.721,37.642,32.989,37.577,33.258z" />
</svg>