<svg xmlns="http://www.w3.org/2000/svg" xmlns:xlink="http://www.w3.org/1999/xlink" version="1.1" x="0px" y="0px" viewBox="0 0 37.383 125" enable-background="new 0 0 37.383 100" xml:space="preserve">
    <path fill="#000000" d="M27.996,17L9.594,16.992c-5.769,0-8.307,4.706-8.307,10.576V52.92c0,4.041,6.063,4.041,6.063,0V28.672h1.305  c0,0,0,4.897,0,6.814s5,1.089,5,4.53c0,5.574-4.002,6.462-4.002,8.984S9.647,94.538,9.647,94.538c0,2.522,1.047,4.462,3.566,4.462  c2.527,0,3.572-2.123,3.572-4.646l0.005-38.401h4.036l-0.014,38.354c0,2.52,1.045,4.576,3.566,4.576  c2.525,0,3.568-1.824,3.568-4.348c0,0,0.016-42.932,0.016-45.536c0-2.604-3.998-2.227-3.998-8.971c0-2.891,5.002-3.098,5.002-4.547  s0.002-6.809,0.002-6.809h1.639V52.92c0,4.041,6.063,4.041,6.063,0V27.718C36.67,22.306,34.33,17,27.996,17z" />
    <circle fill="#000000" cx="18.978" cy="10.15" r="8.15" />
</svg>