<svg xmlns="http://www.w3.org/2000/svg" data-name="Layer 1" viewBox="0 0 56.34 120" x="0px" y="0px" fill="#136d15" >
    <title>05</title>
    <path d="M38.94,16.38v.11l0,0Z" transform="translate(-21.83 -2)" />
    <path d="M70.66,15c0-2.7-2.44-6.54-3.66-7.23S61.42,4.44,58.29,3,50.44,1.65,49,3,38.82,4.39,39,10.69s-.73,17.11,5.72,22.17l3.84,2.27s-3,7.76-.87,12.07,5.58,8,6.28,10.24,0,9.07,3.66,14.12c3.3,4.56-3.11,17.84-4.4,20.4H46.87a64.4,64.4,0,0,1-1.13-8c-.17-3.49,1.92-7.32,2.09-10.81s-.7-4.18-.7-4.18,1.22-.87,2.9-4.36a14.09,14.09,0,0,0,1.11-7.32L50,54.34C41.25,44.8,45.73,36,45.73,36a13.75,13.75,0,0,1-7.85-11.68L36.67,26c-1.22,1.65-2.09,11.78-2.09,11.78,1.22-1.92,6.19-4.88,6.19-4.88S36,37,35.27,42.27s-.7,15.34-.7,15.34,1.57-2.62,3.31-3.27,7-4.53,7-4.53S41.72,54,40,55.14s-4.53,6.3-4.53,6.3l.87,7s2.44-4.36,3.84-4.36,4.71-2.62,4.71-2.62a3.84,3.84,0,0,1-2.41,3.14c-2.41,1.22-3.86,4.36-4.39,6.62s.9,6.1.9,6.1c.73-2.09,4.94-3.49,4.94-3.49-3,1.92-3,6.45-3,6.45.89,4.86,4.62,10.16,5.76,11.68h-.47a43.7,43.7,0,0,1-7.65-1c-10.29-3.11-10-15.88-9.94-17.32.29-6.3,1.84-33.24,3.31-43.73A21.19,21.19,0,0,1,37,18.18l-.38-7.49c-.26-3.89,3.4-6.07,3.4-6.07-5.61,0-6.36,3.49-7.57,4.71A10.21,10.21,0,0,0,30.14,15a1.42,1.42,0,0,0,0,.23c-1.27.45-3.79,1.61-4.81,4-1.39,3.31,1,5.06-1,8.19s-3.66,5.06-1.22,8.19.5,8.28,3.3,11.55l.32.44c-.8,10.73-1.44,22-1.61,25.85-.35,7.79,2.7,17.93,12.49,20.84l.12,0a55.76,55.76,0,0,0,5.59.92A7.89,7.89,0,0,0,44.49,97a3,3,0,0,0,2.17,1c2.5,0,8.27.13,9,0,.94-.19,1.92-1.6,2.48-2.57a53.91,53.91,0,0,0,6.45-1l.12,0c9.78-2.91,12.84-13,12.49-20.84-.23-5-1.25-22.9-2.4-35.46.66-.69,2-2.06,1.62-5.63-.52-4.95.87-5.47,1.57-8.09S77.64,17.34,70.66,15ZM63.78,91a43.7,43.7,0,0,1-7.65,1H53.6c2.5-1.82,11.66-9.54,11.66-24.67l-4.71-9.41s3.66,4.18,4.71,5.23V54.34s-3.66-7.45-6.15-9a7.11,7.11,0,0,1-3-4.26s3.66,3.47,5.49,4.26,3.66,4.49,3.66,4.49a87.76,87.76,0,0,1-.78-9c0-3.32-1.83-6.89-7.85-11.12S50,21.26,50,21.26s5.56,7.15,9,7.63S65.26,33,65.26,33A8.83,8.83,0,0,0,63.31,26C60.55,22.83,55.58,15.77,54,15a20.74,20.74,0,0,0-4-1.31s2.2-1.24,7.67,3a65,65,0,0,1,7.67,6.74s-3.06-7.59-5.16-10.25l3.1,3.51,2.06,1.61a21.31,21.31,0,0,1,5,11.59c1.47,10.49,3,37.43,3.31,43.73C73.78,75.09,74.06,87.86,63.78,91Z" transform="translate(-21.83 -2)" />
</svg>